<?xml version="1.0" encoding="UTF-8"?>
<svg id="Calque_1" data-name="Calque 1" xmlns="http://www.w3.org/2000/svg" viewBox="0 0 22.69 24">
  <path d="m.08,11.6c-.32-1.04.42-1.89,1.4-2.76C4.62,6.06,7.71,3.21,10.79.35c.46-.43.68-.5,1.18-.02,3.33,3.22,6.7,6.4,10.08,9.57.43.41.54.84.6,1.41.22,1.79-.37,3.05-1.79,4.25-3.04,2.57-5.91,5.35-8.82,8.08-.51.48-.79.5-1.3.01-3.3-3.1-6.6-6.19-9.97-9.21-.83-.75-.59-1.61-.7-2.83ZM11.4.6c-2.19,3.72-4.27,7.25-6.36,10.77-.24.4-.22.61.23.82.91.43,1.87.8,2.67,1.4,2.33,1.74,4.59,1.77,6.9.02.28-.21.64-.32.96-.49.76-.4,1.95-.65,2.16-1.25.25-.72-.76-1.49-1.16-2.28-.1-.19-.22-.37-.33-.55-1.66-2.76-3.32-5.53-5.07-8.44Zm-.24,22.76c0-2.56,0-4.85,0-7.13,0-.44-.25-.63-.59-.8-1.89-.96-3.77-1.93-5.65-2.89-.22-.11-.46-.28-.71-.18-1.1.45-2.26.78-3.36,1.45,3.41,3.16,6.75,6.26,10.3,9.55Zm10.81-9.52c-.96-.44-1.79-.78-2.57-1.2-.6-.32-1.11-.28-1.71.04-1.71.9-3.44,1.78-5.2,2.58-.71.32-.91.75-.88,1.49.05,1.76.02,3.52.05,5.27,0,.36-.17.77.2,1.14,3.34-3.07,6.65-6.13,10.12-9.31ZM10.08,1.9s-.09-.09-.13-.13c-2.62,2.39-5.18,4.84-7.88,7.13-1.2,1.01-1.68,2.08-1.52,3.6.07.7.26.77.81.51.46-.21.91-.45,1.39-.57,1.14-.28,1.78-1.02,2.34-2.01,1.62-2.87,3.32-5.69,5-8.53Zm2.9.07s-.09.09-.14.13c1.57,2.61,3.28,5.15,4.65,7.86.92,1.82,2.45,2.48,4.09,3.18.18.08.38.23.55-.03.21-.33-.03-2.49-.34-2.78-2.93-2.79-5.88-5.57-8.82-8.36Z" shape-rendering="geometricPrecision"/>
  <g>
    <path d="m3.43,16V7.65c-.1.05-.2.1-.32.16-.12.05-.25.11-.38.16s-.26.11-.39.16c-.13.05-.24.1-.34.16v-1.6c.09-.05.23-.12.4-.21.17-.09.36-.19.56-.3.2-.11.38-.23.56-.34.17-.12.3-.22.39-.3h1.7v10.48h-2.16Z" style="fill: #010101;" shape-rendering="geometricPrecision"/>
    <path d="m10.31,16.19c-.63,0-1.16-.13-1.58-.38-.42-.25-.74-.61-.96-1.05-.22-.45-.32-.97-.32-1.57v-4.75c0-.61.1-1.15.3-1.61.2-.46.52-.82.94-1.08s.96-.39,1.62-.39,1.19.13,1.61.39.73.62.93,1.08c.2.46.3,1,.3,1.61v4.75c0,.59-.11,1.11-.32,1.56s-.53.81-.96,1.06c-.42.25-.94.38-1.57.38Zm0-1.93c.21,0,.36-.07.45-.2.09-.13.15-.29.17-.47.02-.18.03-.33.03-.46v-4.65c0-.15,0-.31-.03-.5-.02-.19-.07-.35-.16-.49-.09-.14-.24-.21-.46-.21s-.37.07-.46.21c-.09.14-.14.31-.16.49-.02.19-.03.35-.03.5v4.65c0,.13.01.28.04.46.03.18.08.33.17.47.09.13.23.2.43.2Z" style="fill: #010101;" shape-rendering="geometricPrecision"/>
    <path d="m17.42,16.19c-.63,0-1.16-.13-1.58-.38-.42-.25-.74-.61-.96-1.05-.22-.45-.32-.97-.32-1.57v-4.75c0-.61.1-1.15.3-1.61.2-.46.52-.82.94-1.08s.96-.39,1.62-.39,1.19.13,1.61.39c.42.26.73.62.93,1.08.2.46.3,1,.3,1.61v4.75c0,.59-.11,1.11-.32,1.56s-.54.81-.96,1.06c-.42.25-.95.38-1.57.38Zm0-1.93c.21,0,.36-.07.45-.2.09-.13.15-.29.17-.47.02-.18.03-.33.03-.46v-4.65c0-.15,0-.31-.03-.5s-.07-.35-.16-.49c-.09-.14-.24-.21-.46-.21s-.37.07-.46.21c-.09.14-.14.31-.16.49-.02.19-.03.35-.03.5v4.65c0,.13.01.28.04.46.03.18.08.33.17.47.09.13.23.2.43.2Z" style="fill: #010101;" shape-rendering="geometricPrecision"/>
  </g>
</svg>