<?xml version="1.0" encoding="UTF-8"?>
<svg id="Calque_1" data-name="Calque 1" xmlns="http://www.w3.org/2000/svg" viewBox="0 0 24 24">
  <circle cx="12" cy="12" r="11.75" style="fill: none; stroke: #010101; stroke-miterlimit: 10; stroke-width: .5px;" shape-rendering="geometricPrecision"/>
  <path d="m8.66,16.77v-1.82l3-4.6c.23-.34.44-.67.64-.99.2-.32.37-.64.49-.97s.19-.67.19-1.04-.07-.63-.22-.8c-.15-.17-.34-.26-.59-.26-.28,0-.49.08-.65.23s-.26.36-.32.62c-.06.26-.08.55-.08.87v.62h-2.5v-.66c0-.74.12-1.4.36-1.99.24-.58.61-1.04,1.13-1.38.52-.33,1.19-.5,2.02-.5,1.12,0,1.97.29,2.54.87.57.58.86,1.39.86,2.43,0,.5-.08.97-.24,1.41-.16.43-.37.85-.63,1.26-.26.41-.54.83-.84,1.27l-2.29,3.41h3.66v2.02h-6.54Z" style="fill: #010101;" shape-rendering="geometricPrecision"/>
</svg>