<?xml version="1.0" encoding="UTF-8"?>
<svg id="Calque_1" data-name="Calque 1" xmlns="http://www.w3.org/2000/svg" viewBox="0 0 24 21.13">
  <path d="m12.02,21.11c-1.76,0-3.52-.02-5.29.01-.57.01-.89-.17-1.18-.67-1.76-3.1-3.54-6.18-5.34-9.25-.26-.45-.31-.77-.04-1.24C2,6.86,3.79,3.74,5.57.61,5.84.15,6.15,0,6.67,0c3.56.02,7.12.03,10.69,0,.58,0,.87.21,1.15.7,1.72,3.03,3.46,6.05,5.23,9.05.36.6.34,1.05-.02,1.66-1.76,2.96-3.48,5.95-5.17,8.95-.33.58-.7.79-1.35.78-1.72-.04-3.45-.02-5.17-.01Zm-7.57-10.56c3.72,2.11,7.26,4.13,10.83,6.12.6.34.48-.26.48-.53.02-2.11.02-4.21.02-6.32,0-1.86,0-3.73,0-5.8-3.83,2.21-7.48,4.32-11.32,6.53Zm11.87,6.27c2.35-2.02,4.5-3.91,6.7-5.75.57-.47.29-.69-.1-1.04-1.89-1.68-3.75-3.38-5.64-5.05-.26-.23-.45-.62-.96-.57v12.4Zm-12.01-6.76c3.81-2.2,7.39-4.27,11.14-6.44-2.98-.99-5.73-1.89-8.47-2.82-.55-.19-.77-.03-.87.5-.57,2.8-1.15,5.61-1.79,8.77Zm0,1c.63,3.1,1.21,5.91,1.78,8.71.08.37.32.35.61.26,2.82-.88,5.65-1.75,8.7-2.7-3.76-2.13-7.3-4.13-11.09-6.28Zm2.99,9.31c0,.05-.01.1-.02.15h10.2c-.42-.75-.83-1.34-1.1-2-.31-.76-.76-.76-1.43-.55-2.54.82-5.1,1.6-7.65,2.4ZM17.34.58h-8.94c1.67.73,3.36,1.29,5.05,1.84q2.65.87,3.89-1.64s0-.07,0-.2Zm5.09,12c-.06-.07-.13-.13-.19-.2-1.24,1.07-2.48,2.14-3.72,3.2q-2.25,1.92-.73,4.44c.03.05.11.07.21.14.13-.19.26-.37.38-.56,1.35-2.34,2.7-4.68,4.05-7.02ZM5.39,2.37c-.06-.02-.13-.04-.19-.06-1.16,2.01-2.34,4.02-3.48,6.05-.33.59-1.11,1.31-.82,1.77.35.55,1.33.11,2.03.2.51.06.85-.05.97-.66.47-2.43.99-4.85,1.5-7.28Zm12.63-1.51c-.15.16-.21.2-.25.26q-1.5,2.3.56,4.12c1.32,1.17,2.62,2.34,3.94,3.51.07-.06.14-.12.21-.18-1.48-2.56-2.95-5.12-4.45-7.72ZM5.2,18.82c.06-.03.12-.05.19-.08-.4-1.94-.8-3.87-1.19-5.81q-.47-2.34-2.87-2.12s-.08,0-.11,0c-.49,0-.49.21-.28.57,1.43,2.48,2.85,4.96,4.28,7.44Z" shape-rendering="geometricPrecision"/>
  <g>
    <path d="m5.22,14.83v-1.63l2.68-4.11c.2-.3.39-.6.57-.88.18-.29.33-.58.44-.87s.17-.6.17-.92-.06-.56-.19-.72c-.13-.16-.3-.23-.52-.23-.25,0-.44.07-.58.21s-.23.32-.28.55c-.05.23-.08.49-.08.77v.55h-2.24v-.59c0-.66.11-1.25.32-1.77.21-.52.55-.93,1.01-1.23.46-.3,1.06-.45,1.81-.45,1,0,1.76.26,2.27.78.51.52.77,1.24.77,2.17,0,.45-.07.87-.21,1.26-.14.39-.33.76-.57,1.12-.23.36-.49.74-.75,1.14l-2.04,3.05h3.27v1.81h-5.84Z" style="fill: #010101;" shape-rendering="geometricPrecision"/>
    <path d="m15.55,15.04c-.67,0-1.23-.14-1.68-.41s-.79-.65-1.02-1.12c-.23-.48-.35-1.04-.35-1.67v-5.06c0-.65.11-1.23.32-1.72.22-.49.55-.88,1-1.15.45-.28,1.03-.41,1.72-.41s1.27.14,1.72.41c.45.28.78.66.99,1.15s.32,1.06.32,1.72v5.06c0,.63-.12,1.18-.34,1.66-.23.48-.57.86-1.02,1.13s-1.01.41-1.67.41Zm0-2.06c.22,0,.38-.07.48-.21s.16-.31.18-.5c.02-.19.04-.35.04-.49v-4.95c0-.16,0-.33-.03-.53-.02-.2-.08-.37-.17-.52s-.26-.23-.49-.23-.39.08-.49.23c-.1.15-.15.33-.17.52-.02.2-.03.38-.03.53v4.95c0,.14.01.3.04.49s.09.35.19.5.25.21.46.21Z" style="fill: #010101;" shape-rendering="geometricPrecision"/>
  </g>
</svg>