<?xml version="1.0" encoding="UTF-8"?>
<svg id="Calque_1" data-name="Calque 1" xmlns="http://www.w3.org/2000/svg" viewBox="0 0 24.11 24">
  <path d="m12.11,0c3.97,4.51,7.87,8.95,11.78,13.38.33.37.28.58-.09.89-3.74,3.16-7.48,6.33-11.21,9.5-.35.29-.6.31-.96,0-3.77-3.19-7.55-6.36-11.33-9.53-.3-.25-.46-.43-.12-.8C4.16,8.99,8.12,4.51,12.11,0Zm.28,23.29c3.68-3.12,7.17-6.1,10.7-9.03.62-.52.24-.78-.09-1.15-2.57-2.92-5.13-5.84-7.7-8.76-.92-1.04-1.85-2.08-2.91-3.27v22.21Zm-.56-22.1c-.24.19-.33.24-.4.32-3.45,3.89-6.89,7.78-10.36,11.65-.49.55-.36.8.14,1.21,3.22,2.68,6.41,5.39,9.63,8.07.28.24.51.64,1,.6V1.2Z" shape-rendering="geometricPrecision"/>
  <path d="m12.22,16.16v-2.45h-3.35v-1.66l2.84-6.8h2.61v6.79h1.01v1.67h-1.01v2.45h-2.1Zm-1.64-4.12h1.64v-4.54l-1.64,4.54Z" style="fill: #010101;" shape-rendering="geometricPrecision"/>
</svg>