<?xml version="1.0" encoding="UTF-8"?>
<svg id="Calque_1" data-name="Calque 1" xmlns="http://www.w3.org/2000/svg" viewBox="0 0 24.02 22.83">
  <path d="m23.98,7.38c-.47,3.47-.95,6.99-1.41,10.51-.07.53-.43.65-.82.8-3.55,1.34-7.11,2.67-10.66,4.03-.48.18-.83.15-1.25-.14-3.09-2.07-6.18-4.13-9.29-6.17-.5-.33-.61-.68-.53-1.23.48-3.31.95-6.62,1.38-9.94.08-.62.33-.92.9-1.14C5.82,2.8,9.34,1.47,12.85.12c.51-.19.89-.17,1.36.15,3.01,2.04,6.05,4.03,9.08,6.04.36.24.88.39.69,1.06ZM2.1,5.18c-.1.2-.19.31-.2.42-.45,3.19-.88,6.38-1.34,9.57-.08.53.22.74.57.97,2.75,1.83,5.52,3.64,8.25,5.49.67.46.94.46,1.05-.44.36-2.95.79-5.89,1.19-8.84.06-.41.15-.79-.31-1.09-3.07-2.01-6.12-4.04-9.2-6.08Zm8.69,17.06c3.67-1.39,7.1-2.69,10.54-3.97.49-.18.71-.46.78-.98.39-2.95.8-5.89,1.21-8.83.09-.67.15-1.14-.83-.75-3.15,1.24-6.33,2.41-9.49,3.6-.39.15-.76.27-.83.79-.44,3.31-.9,6.61-1.38,10.13Zm12.4-15.34c-3.22-2.14-6.3-4.19-9.39-6.24-.27-.18-.55-.1-.83,0-3.47,1.31-6.95,2.62-10.61,4.01,3.2,2.13,6.26,4.16,9.3,6.19.32.21.6.16.93.03,3.47-1.32,6.94-2.62,10.6-4Z" shape-rendering="geometricPrecision"/>
  <path d="m12.12,16.2c-.79,0-1.42-.17-1.92-.51-.49-.34-.85-.81-1.08-1.41-.23-.6-.34-1.28-.34-2.04v-4.37c0-.78.09-1.49.28-2.1.18-.62.51-1.1.99-1.45.48-.35,1.16-.53,2.06-.53.77,0,1.39.12,1.83.36s.77.59.95,1.04c.19.46.28,1.02.28,1.7,0,.04,0,.08,0,.11,0,.03,0,.07,0,.1h-2.34c0-.49-.04-.85-.11-1.08s-.28-.35-.62-.35c-.23,0-.4.07-.51.21s-.19.38-.23.73c-.04.35-.06.83-.06,1.46v1.07c.12-.21.31-.37.58-.48.27-.11.57-.18.91-.19.64-.02,1.14.12,1.53.43s.66.73.83,1.26c.17.53.25,1.13.25,1.78,0,.85-.1,1.59-.3,2.23-.2.64-.54,1.14-1.01,1.5-.48.36-1.14.54-1.98.54Zm.03-1.83c.23,0,.4-.08.5-.23.1-.15.17-.38.21-.69.03-.3.05-.68.05-1.13,0-.4-.01-.74-.04-1.03-.02-.29-.09-.51-.2-.68-.11-.16-.29-.25-.55-.25-.12,0-.23.02-.34.07-.11.05-.2.11-.28.19s-.14.15-.18.22v1.97c0,.27.02.52.07.76.04.24.13.43.25.57.12.14.3.22.51.22Z" style="fill: #010101;" shape-rendering="geometricPrecision"/>
</svg>