<?xml version="1.0" encoding="UTF-8"?>
<svg id="Calque_1" data-name="Calque 1" xmlns="http://www.w3.org/2000/svg" viewBox="0 0 24.03 23.66">
  <path d="m24.03,12.05c-.12.13-.26.3-.41.45-3.54,3.59-7.09,7.18-10.61,10.79-.47.48-.73.51-1.23.02-3.8-3.69-7.63-7.36-11.47-11.02-.46-.43-.37-.66.03-1.04C4.19,7.61,8.03,3.95,11.86.28c.38-.36.6-.39.97,0,3.61,3.73,7.24,7.45,10.85,11.17.15.15.37.26.35.59ZM12.19.65C8.29,4.37,4.55,7.93.67,11.63c4.62.85,8.98,1.65,13.35,2.48.63.12.68-.1.58-.63-.8-4.19-1.58-8.39-2.41-12.83ZM.9,12.16c3.79,3.64,7.37,7.08,10.95,10.52.44.42.53.07.64-.29.68-2.35,1.36-4.71,2.07-7.05.15-.5.01-.66-.46-.74-4.3-.78-8.6-1.58-13.19-2.43Zm22.46-.35c-3.54-3.64-6.96-7.14-10.37-10.65.59,4.26,1.37,8.42,2.14,12.58.08.43.3.42.64.32,2.47-.74,4.94-1.47,7.59-2.26Zm-10.17,9.9c2.92-2.77,6.19-5.87,9.46-8.98-2.37.51-4.63,1.18-6.9,1.84-.29.09-.54.19-.64.53-.69,2.4-1.4,4.8-1.92,6.6Z" shape-rendering="geometricPrecision"/>
  <path d="m12.01,16.14c-.73,0-1.32-.14-1.75-.43-.44-.29-.75-.69-.94-1.2-.19-.51-.28-1.1-.28-1.76,0-.27.04-.53.09-.78.05-.25.12-.49.23-.71.1-.22.23-.41.39-.58.16-.16.34-.3.56-.41-.28-.21-.52-.5-.74-.89-.21-.39-.33-.88-.35-1.48,0-.61.09-1.13.3-1.56.21-.44.52-.77.94-1,.42-.23.94-.35,1.55-.35s1.14.12,1.56.35c.41.24.72.57.93,1,.2.43.3.95.28,1.56,0,.61-.12,1.1-.32,1.49-.21.39-.45.68-.74.88.21.11.4.24.56.41.16.17.29.36.39.58.1.22.18.45.23.71.05.25.08.52.08.78.02.66-.07,1.25-.26,1.76-.19.51-.51.91-.94,1.2-.44.29-1.03.43-1.77.43Zm0-1.65c.24,0,.41-.09.52-.27.11-.18.17-.39.2-.63s.04-.47.04-.67c0-.28,0-.54-.03-.8-.03-.26-.1-.47-.21-.64s-.28-.25-.52-.25-.4.08-.51.25-.18.37-.21.63c-.03.25-.05.52-.05.81,0,.2.01.43.04.68.03.25.1.46.21.63.11.17.28.26.52.26Zm0-5.03c.15,0,.28-.06.37-.18.1-.12.17-.3.22-.54.05-.24.07-.54.07-.9s-.06-.66-.17-.87c-.11-.21-.28-.32-.5-.32s-.39.11-.52.32c-.12.21-.18.5-.18.86s.02.66.07.9c.05.25.13.43.23.55.11.12.24.18.39.18Z" style="fill: #010101;" shape-rendering="geometricPrecision"/>
</svg>