<?xml version="1.0" encoding="UTF-8"?><svg id="Calque_1" xmlns="http://www.w3.org/2000/svg" width="32" height="32" viewBox="0 0 32 32"><path d="m0,0h32v32H0V0Z" style="fill:none;"/><path d="m27.34,4l-.21.04-7.13,2.76-8-2.79-7.52,2.54c-.28.1-.48.33-.48.64v20.16c0,.37.3.66.66.66l.21-.04,7.11-2.76,8,2.81,7.52-2.54c.28-.1.48-.33.48-.64V4.66c0-.37-.3-.66-.66-.66h.01Zm-7.34,21.33l-8-2.82V6.67l8,2.82v15.85h0Z" style="fill:#fff;"/><polygon points="20.34 25.76 11.66 22.82 11.66 6.24 20.34 9.18 20.34 25.76" style="fill:#fff;"/></svg>