<?xml version="1.0" encoding="UTF-8"?><svg id="Layer_1" xmlns="http://www.w3.org/2000/svg" width="800" height="799.93" viewBox="0 0 800 799.93"><path d="m742.85,695.55l-95.62-95.62c31.65-37.61,54.58-79.22,57.97-113.93,1.8-18.38-11.65-34.74-30.03-36.53s-34.74,11.65-36.53,30.03c-.43,4.4-1.52,9.13-3.17,14.09l-93.6-93.59,200.96-200.99c3.67-3.67,6.43-8.14,8.07-13.06l47.32-141.85c8.72-26.14-16.15-51.02-42.29-42.3l-141.88,47.28c-4.92,1.64-9.4,4.41-13.07,8.08l-200.98,200.98L199.02,57.17c-3.67-3.67-8.14-6.43-13.06-8.08L44.07,1.78C17.93-6.94-6.94,17.93,1.78,44.08l47.32,141.88c1.64,4.92,4.41,9.4,8.08,13.06l200.97,200.98-94.02,94.02c-1.48-4.72-2.4-9.18-2.65-13.29-1.12-18.43-16.97-32.47-35.4-31.35-18.43,1.12-32.47,16.97-31.35,35.4,1.52,25,13.98,53.93,33,82.46.2.31.37.64.58.95.72,1.06,1.48,2.12,2.21,3.18,0,0,0,.01.01.02,1.27,1.83,2.56,3.66,3.88,5.49,1.16,1.61,2.34,3.21,3.54,4.82.33.44.66.88.99,1.32,4.34,5.75,8.92,11.45,13.7,17.07l-95.48,95.48c-13.06-13.06-34.23-13.06-47.29,0-13.06,13.06-13.06,34.23,0,47.29l23.41,23.41c.08.08.14.17.22.24s.16.14.24.22l23.41,23.41c13.06,13.06,34.23,13.06,47.29,0,13.06-13.06,13.06-34.22,0-47.28l95.62-95.62c37.61,31.65,79.22,54.58,113.93,57.97,18.38,1.8,34.74-11.65,36.53-30.03,1.8-18.38-11.65-34.74-30.03-36.53-4.4-.43-9.13-1.52-14.1-3.17l93.58-93.6,94.02,94.03c-4.71,1.48-9.16,2.4-13.27,2.65-18.43,1.12-32.47,16.97-31.35,35.4s16.97,32.47,35.4,31.35c25.06-1.52,54.08-14.05,82.68-33.15.22-.14.46-.27.68-.42.83-.56,1.66-1.16,2.49-1.73.84-.57,1.67-1.16,2.51-1.74.89-.62,1.77-1.23,2.66-1.87,2.04-1.46,4.07-2.95,6.1-4.47.33-.25.65-.49.98-.74,5.8-4.37,11.55-8.99,17.21-13.81l95.48,95.48c-13.06,13.06-13.06,34.23,0,47.29s34.23,13.06,47.29,0l23.45-23.45c.07-.07.14-.12.21-.19s.12-.14.19-.21l23.44-23.44c13.06-13.06,13.06-34.23,0-47.29-13.06-13.06-34.23-13.06-47.29,0Zm-100.16-585.53l70.93-23.64-23.65,70.91-195.38,195.41-47.29-47.29,195.4-195.4ZM86.38,86.38l70.93,23.65,218.76,218.74c.1.1.18.21.28.31l94.6,94.56s.02.02.03.03l128.73,128.72c-7.21,8.91-15.05,17.62-23.3,25.88-7.73,7.73-15.7,14.97-23.8,21.63l-128.87-128.88s-.06-.07-.09-.1l-94.56-94.56s-.02-.02-.03-.03L110.04,157.31l-23.65-70.93Zm161.21,513.31c-6.61-5.35-13.14-11.07-19.47-17.06-.03-.03-.07-.06-.1-.1-1.78-1.69-3.54-3.41-5.29-5.14-.53-.53-1.06-1.05-1.59-1.58-7.56-7.64-14.57-15.36-21.03-23.21l105.31-105.31,47.27,47.28-105.1,105.12Zm105.1-105.12l-105.1,105.12-24.86-22.3-22.62-24.8,105.31-105.31,47.27,47.28Zm141.89-141.86l-47.29-47.29,195.4-195.4,70.93-23.64-23.65,70.91-195.38,195.41Z" style="fill:#fff;"/><polygon points="612.87 560.47 587.88 588.46 560.44 613.62 67.89 118.52 41.56 39.18 120.51 65.64 612.87 560.47" style="fill:#fff; stroke:#fff; stroke-miterlimit:10;"/></svg>