<?xml version="1.0" encoding="UTF-8"?><svg id="Calque_1" xmlns="http://www.w3.org/2000/svg" width="22.91" height="20" viewBox="0 0 22.91 20"><path d="m18.55,1.48s.06.04.09.06c-.01-.03-.03-.07-.04-.1-.07-.08-.17-.15-.2-.24-.16-.43-.5-.69-.87-.91-.27-.16-.56-.29-.98-.21.34.31.6.62.92.84.34.23.73.38,1.09.56Zm-14.86.49c-.13.18-.25.36-.39.53-.1.12-.24.22-.36.33,0-.19.01-.39,0-.58-.03-.2-.07-.41-.14-.6-.03-.09-.15-.28-.26-.06-.35.67-.47,1.32.13,1.81-.19.36-.39.71-.59,1.07-.07-.12-.05-.23-.07-.32-.09-.31-.19-.63-.3-.93-.02-.06-.13-.13-.2-.13-.05,0-.12.11-.14.18-.21.73-.17,1.27.5,1.7-.13.4-.25.79-.39,1.22-.26-.92-.5-1.27-.9-1.35-.27.79.1,1.6.81,1.83-.05.4-.09.79-.14,1.26-.71-1.02-.87-1.15-1.2-1.07.09.85.37,1.59,1.25,1.66.02.38.05.76.07,1.14-.41-.36-.76-.73-1.36-.71.09.28.21.53.34.77.22.42.55.68,1.05.65.06,0,.15.07.17.13.12.33.21.67.34,1.09-.51-.33-.96-.65-1.56-.64.1.48.39.78.72,1.03.16.12.4.26.56.22.48-.11.69.09.83.5.04.12.15.22.21.34.04.08.07.16.14.31-.57-.31-1.09-.47-1.67-.35.14.76,1.28,1.21,1.99.79.3.33.61.67.96,1.05-.36-.05-.65-.1-.94-.12-.3-.02-.61-.03-.87.17.49.59,1.51,1.03,2.22.35.38.28.75.55,1.19.87-.67.02-1.31-.09-1.8.41.25.32.61.34.92.39.47.08.94.02,1.25-.43.03-.04.12-.08.15-.06.42.22.83.45,1.25.67-.1.06-.19.07-.28.07-.45-.04-.83.15-1.2.37-.09.05-.16.17-.19.27-.01.04.12.14.2.17.8.26,1.49.04,2.01-.63.24.1.47.19.71.29.22.1.44.21.67.32-.05.05-.06.07-.08.07-.03,0-.06.01-.08,0-.5-.02-.94.14-1.3.48-.09.08-.13.22-.21.35.16.03.25.05.33.07.6.11,1.39.02,1.78-.62.04-.06.2-.12.26-.09.39.18.76.39,1.09.56-.28.37-.54.69-.79,1.03-.03.03-.02.09-.03.14.06,0,.12.03.17,0,.08-.04.16-.09.21-.16.16-.19.31-.39.47-.58.16-.18.34-.19.51,0,.18.21.36.43.53.64.1.12.21.23.43.03-.31-.36-.62-.72-.94-1.1.41-.22.84-.44,1.26-.67.59.79,1.61,1.09,2.23.66-.41-.64-1.05-.77-1.74-.81.42-.21.83-.39,1.23-.58.15-.07.23-.08.35.07.14.19.31.41.52.47.44.13.9.14,1.35-.03.07-.03.14-.08.21-.12-.05-.08-.08-.18-.14-.23-.34-.28-.74-.41-1.19-.42-.11,0-.22-.02-.4-.04.45-.25.82-.46,1.19-.65.07-.03.21-.03.25.02.27.33.61.5,1.03.43.33-.06.67-.14.98-.26.2-.08.2-.22.01-.3-.19-.08-.39-.16-.59-.19-.33-.05-.67-.07-1.03-.1.37-.27.71-.52,1.07-.76.05-.03.16,0,.24.03.19.07.37.22.57.24.54.05.99-.23,1.41-.52.17-.12.1-.24-.07-.28-.17-.04-.36-.07-.53-.07-.34.01-.69.06-1.04.09.24-.27.5-.5.69-.78.14-.2.25-.19.45-.13.2.06.45.13.62.05.36-.17.69-.43,1.02-.66.08-.05.1-.18.16-.28-.62-.12-1.14.02-1.7.32.22-.4.4-.7.56-1.02.08-.15.17-.17.32-.14.17.02.37.05.52-.01.53-.2.83-.65,1.12-1.15-.11-.03-.2-.08-.26-.06-.3.1-.6.21-.89.33-.15.06-.27.17-.45.29.15-.46.27-.86.39-1.25.63.19,1.31-.4,1.48-1.4-.29-.08-.52.06-.72.22-.21.16-.39.35-.63.57,0-.17,0-.27,0-.37,0-.1.03-.21.05-.31.02-.15.04-.3.06-.45.04-.25.26-.1.37-.17.02,0,.03-.02.05-.03.49-.2.85-.95.76-1.59-.62.09-.82.65-1.17,1.14-.05-.49-.1-.88-.14-1.27.77-.13,1.04-1.21.76-1.86-.53.29-.65.84-.87,1.37-.09-.32-.17-.61-.26-.89-.05-.12-.1-.24-.13-.3.17-.15.34-.25.43-.4.29-.44.19-.93.07-1.4-.05-.18-.2-.14-.29,0-.23.36-.4.74-.34,1.18-.01.03-.03.07-.05.12-.13-.23-.25-.44-.37-.65-.08-.14-.15-.28-.21-.38.14-.23.36-.43.36-.64,0-.38-.11-.76-.2-1.13-.01-.06-.11-.11-.17-.16-.04.05-.12.1-.13.16-.09.38-.17.76-.25,1.15-.04-.02-.11-.07-.25-.16.09.17.14.26.21.38-1.02-.21-1.13-.2-1.44.07.26.31.83.55,1.21.48.35-.07.67-.16.81.3.04.1.1.2.13.31.03.09.04.19.06.28-.24-.1-.48-.22-.73-.28-.22-.06-.44-.03-.63.15.41.41.8.81,1.42.68.25-.05.32.05.36.24.08.28.16.57.24.85-.02.02-.04.04-.05.05-.38-.42-.83-.63-1.45-.52.41.59.78,1.12,1.62,1,.04.43.08.83.11,1.23-.62-.69-.89-.84-1.38-.7.34.54.53,1.21,1.36,1.24-.05.44-.09.88-.13,1.31-.28-.51-.5-1.03-1.23-1.04.19.68.32,1.34,1.12,1.56-.15.43-.28.84-.45,1.32-.26-.99-.53-1.34-1-1.35.04.69.05,1.37.81,1.78-.23.39-.44.76-.66,1.14-.03,0-.06-.01-.09-.02.05-.6-.04-1.13-.64-1.48-.04.19-.1.35-.11.51-.03.48-.05.97.38,1.32.05.04.09.17.07.19-.27.32-.56.63-.85.94-.03-.02-.05-.03-.08-.05.19-.58.18-1.11-.33-1.63-.29.74-.59,1.39-.02,2.09-.41.28-.78.55-1.16.81-.02-.02-.04-.05-.06-.07.31-.43.36-.9.23-1.4-.02-.09-.11-.17-.16-.26-.07.05-.16.1-.2.17-.13.2-.28.4-.36.62-.08.22-.16.49-.11.71.12.57.15.56-.36.82-.16.08-.32.15-.49.22-.07.03-.14.06-.2.09.29-.53.51-1.03.29-1.62-.2-.02-.2-.02-.42.23-.36.4-.67.85-.52,1.41.07.28,0,.36-.23.43-.06.02-.12.05-.18.07-.3.12-.6.24-.9.36,0-.08.02-.11.04-.14.36-.42.57-.88.5-1.45-.02-.17-.12-.26-.23-.15-.52.5-1.16.95-.88,1.84.02.06-.04.18-.1.21-.38.21-.77.4-1.16.59-.09.04-.22.04-.31,0-.34-.16-.67-.35-1.01-.52-.22-.1-.35-.21-.19-.47.05-.08.06-.21.03-.31-.13-.56-.48-.97-.92-1.31-.18-.14-.28-.07-.3.18-.02.39.08.75.3,1.08.09.13.19.26.28.39l-.04.06c-.45-.19-.91-.38-1.32-.55.03-.28.11-.52.07-.75-.08-.47-.4-.81-.71-1.15-.05-.05-.17-.09-.23-.06-.05.02-.09.13-.1.21-.08.55.09,1.03.46,1.44-.02.02-.03.04-.05.06-.43-.22-.86-.44-1.32-.67.22-.36.3-.74.14-1.11-.14-.35-.28-.72-.62-.97-.42.65-.21,1.24.07,1.83-.41-.29-.81-.59-1.24-.89.34-.38.41-.77.29-1.21-.06-.21-.12-.42-.19-.62-.02-.06-.08-.15-.12-.16-.05,0-.13.06-.17.12-.26.4-.39.82-.19,1.28.02.04,0,.1.01.15-.02.01-.05.03-.07.04-.29-.33-.59-.67-.85-.97.13-.16.2-.25.28-.35.24-.3.21-.65.19-.99-.01-.19-.07-.53-.14-.54-.28-.04-.35.26-.49.45,0,0,0,.02,0,.03-.06.29-.12.58-.19.93-.23-.4-.44-.78-.66-1.17.78-.39.79-1.07.79-1.8-.69.18-.8.75-.95,1.3-.02,0-.05-.01-.07-.02-.13-.41-.26-.81-.39-1.22.57-.17.83-.49,1.01-1.23.03-.11,0-.23,0-.34-.11.03-.22.06-.33.1-.4.15-.52.53-.7.86-.03,0-.06,0-.09,0-.06-.4-.11-.8-.17-1.2.7-.02,1.22-.67,1.33-1.37-.27.1-.53.15-.74.28-.22.13-.39.34-.6.52.05-.4.09-.8.14-1.21.82.12,1.17-.44,1.61-1-.19-.02-.3-.04-.42-.03-.43.01-.75.26-1.07.53.04-.24.13-.46.16-.69.06-.37.26-.45.61-.43.55.04.88-.38,1.3-.72-.56-.21-1.03-.14-1.49.15.13-.31.28-.57.42-.85.07-.14.13-.17.29-.09.16.08.38.15.54.1.31-.09.6-.26.89-.4.04-.02.1-.1.09-.13-.02-.05-.07-.12-.13-.13-.15-.04-.32-.08-.47-.07-.26.02-.52.07-.79.11.23-.29.46-.58.7-.87.1.06.19.13.29.18.47.23.89,0,1.32-.15.02,0,.02-.22,0-.24-.2-.08-.41-.16-.62-.19-.22-.03-.44,0-.72,0,.02-.19.05-.36.06-.53.01-.25.03-.5.02-.75,0-.08-.1-.16-.15-.24-.08.06-.19.1-.24.17-.1.16-.17.34-.25.51-.2.4-.1.75.18,1.07Zm15.16-.24c-.07,0-.21,0-.35,0-.25.02-.5.01-.74.07-.13.03-.22.17-.33.26.11.07.22.17.34.21.6.2,1.16.15,1.51-.33.37-.52.3-1.18-.16-1.63-.05-.05-.14-.09-.19-.08-.05.01-.1.11-.1.18,0,.42.01.84.02,1.32Zm-14.66-.13c.8-.45,1.67-.69,2.14-1.6-.27.07-.5.11-.71.18-.68.23-.98.86-1.43,1.42Z" style="fill:#46642e;"/></svg>