<?xml version="1.0" encoding="UTF-8"?><svg id="uuid-a11595c9-4ba0-4be5-8778-83c6ce0e2a6a" xmlns="http://www.w3.org/2000/svg" width="53.92mm" height="64.56mm" viewBox="0 0 152.84 183"><defs><style>.uuid-255f86d0-d5ef-4461-b6c3-dd6023c0224b{fill:#F3F4F4;}</style></defs><path class="uuid-255f86d0-d5ef-4461-b6c3-dd6023c0224b" d="m.19,39.75c-.06,0-.12,0-.19,0,0-.36,0-.72,0-1.07.06,0,.13.02.19.03.05.07.1.13.15.2.04-.07.08-.15.12-.22,0-.82,0-1.64,0-2.46.04-.97.08-1.94.12-2.9,0-.46,0-.92.01-1.38v-3.19c-.09,0-.18,0-.27,0v3.33c0,.41,0,.82,0,1.23-.11.15-.21.3-.32.46,0-3.38,0-6.76,0-10.13,1.44-.31,2.87-.65,4.31-.93,1.47-.28,2.96-.5,4.44-.75,1.08-.19,2.16-.4,3.24-.57,1.14-.18,2.28-.33,3.42-.51,1.23-.19,2.46-.39,3.69-.62,2.07-.39,4.15-.79,6.21-1.23,2.61-.55,5.22-1.08,7.8-1.75,6.07-1.56,12.03-3.46,17.82-5.86,3.5-1.45,7.02-2.83,10.46-4.4,4.03-1.84,7.98-3.86,11.96-5.8.62-.3,1.24-.63,1.87-.93,1.05-.52,2.06-.22,3.02.24,3.45,1.68,6.84,3.47,10.33,5.06,4.86,2.22,9.73,4.45,14.71,6.4,5.14,2.02,10.37,3.8,15.77,5.05,3.88.9,7.75,1.89,11.65,2.71,2.56.54,5.17.84,7.75,1.26,2.71.45,5.41.91,8.11,1.39,1.86.33,3.71.72,5.56,1.07.53.1.75.37.73.93-.08,2.55-.09,5.09-.17,7.64-.07,2.33-.19,4.66-.3,7-.1,2.13-.21,4.25-.3,6.38-.06,1.5-.07,3-.16,4.49-.13,2.09-.31,4.18-.46,6.28-.06.81-.12,1.61-.15,2.42-.06,1.6-.04,3.2-.15,4.8-.17,2.49-.36,4.97-.63,7.45-.52,4.87-1.21,9.7-2.43,14.46-1.34,5.21-2.41,10.49-3.96,15.63-1.39,4.62-3.21,9.12-4.95,13.63-.94,2.43-1.99,4.84-3.19,7.16-1.62,3.13-3.39,6.18-5.19,9.21-1.71,2.88-3.48,5.72-5.33,8.51-1.53,2.31-3.18,4.55-4.85,6.77-1.48,1.97-2.95,3.98-4.63,5.78-3.14,3.37-6.39,6.65-9.67,9.89-1.67,1.65-3.48,3.17-5.27,4.71-2.13,1.82-4.37,3.52-6.44,5.4-3.55,3.23-7.8,5.38-11.8,7.92-1.51.96-3.24,1.55-4.85,2.35-.39.19-.72.49-1.07.75h-1.07l-.6-.33c-3.04-1.24-5.8-2.97-8.54-4.75-1.87-1.21-3.81-2.31-5.61-3.61-1.87-1.36-3.62-2.88-5.4-4.36-2.04-1.69-4.11-3.36-6.07-5.14-2.69-2.44-5.33-4.95-7.93-7.5-1.83-1.8-3.63-3.65-5.3-5.6-1.6-1.87-3.07-3.85-4.51-5.85-2.32-3.24-4.67-6.46-6.82-9.81-2.14-3.33-4.08-6.8-6.08-10.22-.86-1.47-1.78-2.92-2.47-4.46-1.37-3.04-2.63-6.14-3.88-9.23-.87-2.16-1.76-4.32-2.45-6.54-1.49-4.81-2.96-9.63-4.26-14.49-.88-3.3-1.54-6.67-2.18-10.04-.51-2.64-.88-5.32-1.23-7.99-.24-1.8-.34-3.61-.48-5.41-.17-2.27-.32-4.53-.47-6.8-.16-2.5-.32-5-.45-7.5-.13-2.46-.21-4.92-.33-7.37-.11-2.24-.25-4.48-.39-6.9-.1.24-.14.33-.18.42,0,.08,0,.16,0,.24Zm149-12.91c-.4,0-.68.04-.95,0-2.93-.5-5.86-1.03-8.79-1.53-3.09-.52-6.2-.96-9.27-1.55-3.44-.66-6.87-1.36-10.27-2.19-3.08-.75-6.12-1.65-9.15-2.58-2.6-.8-5.21-1.63-7.73-2.65-4.37-1.76-8.71-3.62-13-5.55-3.74-1.69-7.43-3.5-11.11-5.33-1.4-.7-2.61-.79-4.07-.02-3.64,1.9-7.33,3.69-11.07,5.39-6.73,3.07-13.56,5.87-20.63,8.13-6.98,2.23-14.1,3.79-21.29,5.12-2.62.48-5.26.83-7.88,1.26-2.95.49-5.89,1.03-8.84,1.49-.6.09-.7.35-.69.84.06,2.29.09,4.59.16,6.88.08,2.52.21,5.03.29,7.54.12,3.46.21,6.92.31,10.38,0,.13,0,.26,0,.38.16,2.17.33,4.34.47,6.52.08,1.19.06,2.39.15,3.58.18,2.37.39,4.74.62,7.1.24,2.4.45,4.81.8,7.2.32,2.18.76,4.36,1.24,6.51.55,2.44,1.15,4.88,1.81,7.29,1.09,3.97,2.12,7.97,3.42,11.88,1.24,3.7,2.77,7.31,4.22,10.94.73,1.82,1.45,3.65,2.38,5.37,2.98,5.53,6.18,10.93,9.64,16.18,4.84,7.34,10.39,14.07,16.8,20.07,3.43,3.21,7.04,6.25,10.65,9.26,2.41,2.01,4.84,4.04,7.48,5.72,3.5,2.23,6.91,4.66,10.83,6.16.49.19,1.19.23,1.66.03,5.67-2.45,11.03-5.49,15.79-9.43,5.08-4.2,10.05-8.54,14.9-13.01,2.83-2.61,5.42-5.5,7.9-8.46,2.21-2.64,4.13-5.52,6.17-8.3,4.04-5.51,7.56-11.36,10.68-17.43,2.86-5.58,5.16-11.42,7.16-17.36,1-2.99,1.78-6.05,2.6-9.1.67-2.51,1.29-5.04,1.87-7.57.55-2.41,1.03-4.83,1.49-7.26.3-1.58.56-3.17.76-4.77.16-1.31.21-2.62.33-3.94.14-1.64.32-3.27.45-4.91.09-1.19.09-2.39.17-3.58.13-1.94.33-3.88.45-5.82.13-2.2.21-4.41.31-6.62.1-2.03.22-4.06.3-6.09.07-1.86.11-3.72.16-5.57.06-2.27.1-4.53.16-6.8,0-.18.04-.35.05-.53.05-1.06.1-2.12.15-3.27Z"/></svg>