<svg width="20" height="20" viewBox="0 0 20 20" fill="none" xmlns="http://www.w3.org/2000/svg">
<g clip-path="url(#clip0_254_300)">
<path d="M18.3334 1.66669L16.2501 2.83335L14.1667 1.66669L15.3334 3.75002L14.1667 5.83335L16.2501 4.66669L18.3334 5.83335L17.1667 3.75002L18.3334 1.66669ZM11.975 6.07502C11.65 5.75002 11.125 5.75002 10.8 6.07502L1.07505 15.8C0.750049 16.125 0.750049 16.65 1.07505 16.975L3.02505 18.925C3.35005 19.25 3.87505 19.25 4.20005 18.925L13.9167 9.20835C14.2417 8.88335 14.2417 8.35835 13.9167 8.03335L11.975 6.07502ZM11.1167 10.65L9.35005 8.88335L11.3834 6.85002L13.15 8.61669L11.1167 10.65Z" fill="#1F262D"/>
</g>
<defs>
<clipPath id="clip0_254_300">
<rect width="20" height="20" fill="white"/>
</clipPath>
</defs>
</svg>
